Color
C

Release Date
1967

Genre
Drama

Executive Producer / Co-Producer
Shashi Goswami

Director
Manoj Kumar

Star Cast
Manoj Kumar...... Bharat
Asha Parekh...... Kavita
Pran...... Malang
Prem Chopra...... Puran 'Kumar'
Kamini Kaushal...... Radha
Kanhaiya Lal...... Lala Dhaniram
Madan Puri...... Charan Das (as Madanpuri)
David...... Major saab
Manmohan Krishan...... Kishan (as Manmohankrishan)
Aruna Irani
Sunder...... Sunder Lal
Asit Sen...... Lakhpati
Mohan Choti...... Mangal
Shammi
Laxmi Chhaya
Mahesh...... (as Master Mahesh)
Manmohan...... Kavita's Brother
Krishan Dhawan...... Ramu
Ram Mohan
Tun Tun...... Lakhpati's Wife (as Tuntun)
Birbal...... Barber (uncredited)
Gulshan Bawra

Cassettes and CD's on
Saregama-HMV

Singers
Mahendra Kapoor
Manna Dey
Asha Bhosle
Shamshad Begum
Sunder
Mukesh
Mohammed Rafi
Lata Mangeshkar

Lyricist
Prem Dhawan
Qamar
Indeevar
Gulshan Bawra

Music Director
Kalayanji
Anandji

Cinematography
V N Reddy

Choreography
Surya Kumar
Herman Benjamin

Art
Gyan Singh

Editor
B S Glaad

Sound
Minoo Katrak

Story / Writer
Manoj Kumar




Upkar 1967 2CD DvDrip AC3 ~ Drama ~ [RdY]

Format : AVI
Format/Info : Audio Video Interleave
File size : 1.37 GiB
Duration : 2h 49mn
Overall bit rate : 1 155 Kbps
Writing application : VirtualDubMod 1.5.10.2 (build 2542/release)
Writing library : VirtualDubMod build 2542/release

Video
ID : 0
Format : MPEG-4 Visual
Format profile : AdvancedSimple@L5
Format settings, BVOP : Yes
Format settings, QPel : Yes
Format settings, GMC : No warppoints
Format settings, Matrix : Default (MPEG)
Codec ID : XVID
Codec ID/Hint : XviD
Duration : 2h 49mn
Bit rate : 921 Kbps
Width : 544 pixels
Height : 400 pixels
Display aspect ratio : 4:3
Frame rate : 23.976 fps
Resolution : 24 bits
Colorimetry : 4.2.0
Scan type : Progressive
Bits/(Pixel*Frame) : 0.177
Stream size : 1.09 GiB (80%)
Writing library : XviD 1.2.1 (UTC 2008-12-04)

Audio
ID : 1
Format : AC-3
Format/Info : Audio Coding 3
Codec ID : 2000
Duration : 2h 49mn
Bit rate mode : Constant
Bit rate : 224 Kbps
Channel(s) : 2 channels
Channel positions : L R
Sampling rate : 48.0 KHz
Stream size : 271 MiB (19%)
Alignment : Split accross interleaves
Interleave, duration : 42 ms (1.00 video frame)
Interleave, preload duration : 500 ms